<?xml version="1.0" encoding="UTF-8" standalone="no"?>
<!-- Created with Inkscape (http://www.inkscape.org/) -->
<svg
   xmlns:dc="http://purl.org/dc/elements/1.1/"
   xmlns:cc="http://creativecommons.org/ns#"
   xmlns:rdf="http://www.w3.org/1999/02/22-rdf-syntax-ns#"
   xmlns:svg="http://www.w3.org/2000/svg"
   xmlns="http://www.w3.org/2000/svg"
   xmlns:sodipodi="http://sodipodi.sourceforge.net/DTD/sodipodi-0.dtd"
   xmlns:inkscape="http://www.inkscape.org/namespaces/inkscape"
   width="400"
   height="300"
   id="svg1901"
   sodipodi:version="0.32"
   inkscape:version="0.46"
   sodipodi:docname="gordo.svg"
   sodipodi:docbase="/home/tsoots/ohj/translations/po"
   version="1.0"
   inkscape:output_extension="org.inkscape.output.svg.inkscape"
   inkscape:export-filename="/Users/samuli/Documents/gordo.png"
   inkscape:export-xdpi="90"
   inkscape:export-ydpi="90">
  <defs
     id="defs1903">
    <inkscape:perspective
       sodipodi:type="inkscape:persp3d"
       inkscape:vp_x="0 : 526.18109 : 1"
       inkscape:vp_y="0 : 1000 : 0"
       inkscape:vp_z="744.09448 : 526.18109 : 1"
       inkscape:persp3d-origin="372.04724 : 350.78739 : 1"
       id="perspective7" />
    <inkscape:perspective
       id="perspective2461"
       inkscape:persp3d-origin="372.04724 : 350.78739 : 1"
       inkscape:vp_z="744.09448 : 526.18109 : 1"
       inkscape:vp_y="0 : 1000 : 0"
       inkscape:vp_x="0 : 526.18109 : 1"
       sodipodi:type="inkscape:persp3d" />
  </defs>
  <sodipodi:namedview
     id="base"
     pagecolor="#ffffff"
     bordercolor="#666666"
     borderopacity="1.0"
     inkscape:pageopacity="0.0"
     inkscape:pageshadow="2"
     inkscape:zoom="1.4"
     inkscape:cx="221.47093"
     inkscape:cy="134.94306"
     inkscape:document-units="px"
     inkscape:current-layer="layer1"
     gridtolerance="10000"
     inkscape:window-width="1280"
     inkscape:window-height="752"
     inkscape:window-x="0"
     inkscape:window-y="22"
     showgrid="false" />
  <metadata
     id="metadata1906">
    <rdf:RDF>
      <cc:Work
         rdf:about="">
        <dc:format>image/svg+xml</dc:format>
        <dc:type
           rdf:resource="http://purl.org/dc/dcmitype/StillImage" />
      </cc:Work>
    </rdf:RDF>
  </metadata>
  <g
     inkscape:label="Taso 1"
     inkscape:groupmode="layer"
     id="layer1"
     style="opacity:1">
    <path
       style="opacity:1;fill:#5fa94c;fill-opacity:0.99509804;fill-rule:evenodd;stroke:none;stroke-width:1px;stroke-linecap:butt;stroke-linejoin:miter;stroke-opacity:1"
       d="M 43.436562,67.659813 C 58.073661,80.671162 78.153175,85.560724 96.815591,89.642261 C 113.71264,89.550398 127.693,77.357979 139.59234,66.615035 C 151.19872,60.581857 146.63443,34.12845 162.43902,39.774198 C 180.93172,43.683297 198.65523,51.172219 217.30351,54.023384 C 229.24192,56.658798 244.7146,47.9197 253.75976,57.348837 C 262.64956,66.192538 269.86482,80.784811 274.74947,88.445798 C 285.19981,76.407496 300.23174,81.660679 302.98362,96.502971 C 310.83791,108.4189 317.68675,121.0665 332.34018,125.23851 C 343.90943,127.48531 352.38019,131.14922 355.01274,144.47024 C 362.96189,156.41041 377.15132,162.08284 387.28664,171.89795 C 407.49154,182.27268 379.85487,201.20385 371.59793,189.31637 C 372.77937,205.33205 358.70444,200.40742 355.71698,189.56793 C 346.4647,198.40113 334.17302,202.78609 326.60931,189.20052 C 326.6412,181.25092 322.81467,169.43728 318.69766,183.03992 C 312.17035,193.72902 291.05376,188.48391 285.87317,177.76644 C 275.67876,174.54921 280.43695,197.22756 287.54315,202.54514 C 294.57482,221.80335 316.46898,210.06066 331.20036,217.03164 C 341.2909,216.51869 361.79729,222.18884 350.03519,235.06251 C 343.73782,244.91701 315.56116,223.82397 323.36609,246.86259 C 322.93901,259.60213 293.70759,263.78049 296.6423,247.34811 C 287.67317,228.72577 279.39623,259.28414 264.82112,253.54213 C 251.61335,260.13833 247.85248,229.87239 240.46157,249.442 C 230.64633,260.16319 213.07663,236.4225 231.98323,232.86988 C 240.41122,229.70851 257.41849,221.34066 258.85733,218.07072 C 243.52023,218.5309 228.36012,219.96212 213.26845,222.21315 C 199.57066,224.07985 187.94826,217.89714 175.08407,214.53924 C 159.60467,218.25356 145.98529,205.82909 130.86052,214.43494 C 125.09146,216.44186 107.46526,211.94263 107.99296,216.6109 C 118.92312,222.67745 134.81174,242.07594 113.19841,245.86822 C 100.80844,249.3476 98.905267,233.79846 95.918695,228.8001 C 94.634426,237.60531 91.733927,254.3161 81.315707,241.15438 C 72.177635,239.60234 72.516244,209.43303 66.484909,225.02195 C 66.932809,238.4739 46.374667,259.32074 41.888635,236.98241 C 39.338121,224.34571 53.287559,215.68913 49.609547,204.81475 C 38.951888,206.92596 17.489774,217.50279 21.291588,196.69535 C 27.945178,189.09668 45.549529,195.41685 50.630436,181.60198 C 59.283671,175.82032 59.848994,190.49985 66.898888,179.02855 C 72.938399,168.06 91.850306,165.57966 97.194417,170.22447 C 86.318557,163.31133 82.7498,150.72707 86.991079,141.0072 C 71.676589,144.65852 53.870464,145.73078 47.207192,128.21743 C 48.039097,114.67024 25.412276,121.31874 30.304576,105.03546 C 12.634368,99.740495 19.591367,84.043682 31.375062,77.366401 C 32.108225,67.342422 32.196159,58.145789 43.436562,67.659813 z"
       id="path3237" />
    <path
       style="fill:#48823a;fill-opacity:1;fill-rule:evenodd;stroke:none;stroke-width:1px;stroke-linecap:butt;stroke-linejoin:miter;stroke-opacity:1"
       d="M 247.47969,53.216663 C 247.11185,53.308623 246.77444,53.386814 246.41719,53.466663 L 222.26094,115.90863 L 246.54219,180.18988 L 279.47969,184.53363 C 279.43413,183.85327 279.56295,183.55439 279.82344,183.81488 C 280.06086,183.39939 281.19694,175.16606 283.85469,177.82381 C 285.34104,178.56698 285.01498,177.98835 284.72969,177.63631 C 284.88418,177.81096 285.1469,178.08477 285.88594,178.82381 C 289.3841,182.32198 291.15624,185.95327 297.15826,187.20327 C 299.95688,187.78612 304.87073,188.27547 309.26094,188.59613 L 258.13594,62.783627 C 254.015,57.364385 249.8307,53.216663 247.47969,53.216663 z"
       id="path3279"
       sodipodi:nodetypes="cccccccsssccc" />
    <path
       style="fill:#7fbe6e;fill-opacity:1;fill-rule:evenodd;stroke:none;stroke-width:1px;stroke-linecap:butt;stroke-linejoin:miter;stroke-opacity:1"
       d="M 154.72969,38.283627 C 148.49342,51.38792 144.30982,66.452293 130.91714,74.340161 C 120.86767,86.014688 101.58159,84.30964 95.794927,99.467212 C 90.433877,109.35435 86.626317,122.75138 92.338236,133.18685 C 101.11824,136.59435 117.84884,134.59069 116.69854,149.96868 C 111.25155,167.88759 123.89816,184.89588 135.65549,197.07587 C 147.33677,205.72396 161.16345,218.77443 176.91528,214.22854 C 189.11115,210.73996 200.48656,204.87933 209.7309,196.10206 C 221.25225,187.01554 239.14309,185.36512 245.38052,170.30129 C 252.10792,154.12491 246.10304,135.77025 235.45408,122.7368 C 228.80784,107.43059 241.15476,93.030123 247.41258,79.846836 C 253.27228,71.466226 255.9516,52.014506 240.88925,53.022064 C 225.07435,55.587412 208.90918,53.878153 193.82569,48.486798 C 181.02815,44.198778 167.9975,40.764844 154.72969,38.283627 z"
       id="path3241" />
    <path
       style="fill:#94c986;fill-opacity:1;fill-rule:evenodd;stroke:none;stroke-width:1px;stroke-linecap:butt;stroke-linejoin:miter;stroke-opacity:1"
       d="M 139.41719,133.75238 C 134.55068,145.65949 137.71036,158.75034 140.76235,170.68373 C 142.78921,178.07107 143.3448,186.51378 149.25314,192.10518 C 154.93851,198.15593 163.49912,200.44141 171.58009,200.21722 C 182.71021,201.21537 195.14997,197.92632 202.08784,188.62473 C 206.90397,179.11991 216.16627,172.90121 221.08437,163.45429 C 223.85447,158.11648 225.79806,152.39652 228.51957,147.02442 C 230.63504,142.32024 232.54318,137.45929 233.34129,132.3372"
       id="path3243" />
    <path
       style="fill:#b6daac;fill-opacity:1;fill-rule:evenodd;stroke:none;stroke-width:1px;stroke-linecap:butt;stroke-linejoin:miter;stroke-opacity:1"
       d="M 144.7654,165.55148 C 151.5338,162.66822 153.45064,154.69979 153.9501,148.05602 C 155.08942,142.4624 158.02461,135.95544 154.05033,130.788 C 150.02708,125.43474 141.29538,126.59351 137.52676,131.66861 C 131.62627,138.13777 131.8503,147.58795 132.65985,155.73625 C 132.86433,162.0919 138.79931,164.14513 143.99024,164.8742 L 144.7654,165.55148 L 144.7654,165.55148 z"
       id="path3295" />
    <path
       style="fill:#000000;fill-opacity:1;fill-rule:evenodd;stroke:#000000;stroke-width:1px;stroke-linecap:butt;stroke-linejoin:miter;stroke-opacity:1"
       d="M 133.55112,138.05148 C 132.01843,140.35364 126.24509,142.99994 127.37002,148.03426 C 125.88133,152.4629 130.91809,159.6613 134.52381,153.75058 C 136.20682,149.94221 136.88467,145.24353 135.53444,141.23031 C 135.04826,140.07356 134.35847,139.00915 133.55112,138.05148 z"
       id="path3247"
       sodipodi:nodetypes="ccccc" />
    <path
       style="fill:#b6daac;fill-opacity:1;fill-rule:evenodd;stroke:none;stroke-width:1px;stroke-linecap:butt;stroke-linejoin:miter;stroke-opacity:1"
       d="M 215.47969,160.55148 C 209.37952,156.81602 209.28168,148.32636 211.85103,142.40017 C 214.1849,136.90966 218.32601,131.11483 224.78311,130.55044 C 229.1929,130.03881 234.35239,131.63668 236.12601,136.08324 C 237.83149,140.02603 238.28135,144.88977 236.50942,148.84995 C 232.67745,154.49887 227.74709,160.7279 220.47427,161.54516 C 218.77037,161.46662 217.10202,161.05708 215.47969,160.55148 z"
       id="path3299" />
    <path
       style="fill:#000000;fill-opacity:1;fill-rule:evenodd;stroke:#000000;stroke-width:1px;stroke-linecap:butt;stroke-linejoin:miter;stroke-opacity:1"
       d="M 232.2654,143.19434 C 227.51557,145.9467 225.18514,152.04172 227.19068,157.20753 C 227.08063,161.78624 233.1845,166.19367 235.47276,160.47487 C 236.8078,156.26431 238.77077,151.74615 237.64938,147.26386 C 237.02102,144.75327 234.58045,143.65724 232.2654,143.19434 z"
       id="path3249" />
    <path
       style="opacity:1;fill:none;fill-opacity:0.99509804;fill-rule:evenodd;stroke:#000000;stroke-width:1px;stroke-linecap:butt;stroke-linejoin:miter;stroke-opacity:1"
       d="M 43.436562,67.659813 C 58.073661,80.671162 78.153175,85.560724 96.815591,89.642261 C 113.71264,89.550398 127.693,77.357979 139.59234,66.615035 C 151.19872,60.581857 146.63443,34.12845 162.43902,39.774198 C 180.93172,43.683297 198.65523,51.172219 217.30351,54.023384 C 229.24192,56.658798 244.7146,47.9197 253.75976,57.348837 C 262.64956,66.192538 269.86482,80.784811 274.74947,88.445798 C 285.19981,76.407496 300.23174,81.660679 302.98362,96.502971 C 310.83791,108.4189 317.68675,121.0665 332.34018,125.23851 C 343.90943,127.48531 352.38019,131.14922 355.01274,144.47024 C 362.96189,156.41041 377.15132,162.08284 387.28664,171.89795 C 407.49154,182.27268 379.85487,201.20385 371.59793,189.31637 C 372.77937,205.33205 358.70444,200.40742 355.71698,189.56793 C 346.4647,198.40113 334.17302,202.78609 326.60931,189.20052 C 326.6412,181.25092 322.81467,169.43728 318.69766,183.03992 C 312.17035,193.72902 291.05376,188.48391 285.87317,177.76644 C 275.67876,174.54921 280.43695,197.22756 287.54315,202.54514 C 294.57482,221.80335 316.46898,210.06066 331.20036,217.03164 C 341.2909,216.51869 361.79729,222.18884 350.03519,235.06251 C 343.73782,244.91701 315.56116,223.82397 323.36609,246.86259 C 322.93901,259.60213 293.70759,263.78049 296.6423,247.34811 C 287.67317,228.72577 279.39623,259.28414 264.82112,253.54213 C 251.61335,260.13833 247.85248,229.87239 240.46157,249.442 C 230.64633,260.16319 213.07663,236.4225 231.98323,232.86988 C 240.41122,229.70851 257.41849,221.34066 258.85733,218.07072 C 243.52023,218.5309 228.36012,219.96212 213.26845,222.21315 C 199.57066,224.07985 187.94826,217.89714 175.08407,214.53924 C 159.60467,218.25356 145.98529,205.82909 130.86052,214.43494 C 125.09146,216.44186 107.46526,211.94263 107.99296,216.6109 C 118.92312,222.67745 134.81174,242.07594 113.19841,245.86822 C 100.80844,249.3476 98.905267,233.79846 95.918695,228.8001 C 94.634426,237.60531 91.733927,254.3161 81.315707,241.15438 C 72.177635,239.60234 72.516244,209.43303 66.484909,225.02195 C 66.932809,238.4739 46.374667,259.32074 41.888635,236.98241 C 39.338121,224.34571 53.287559,215.68913 49.609547,204.81475 C 38.951888,206.92596 17.489774,217.50279 21.291588,196.69535 C 27.945178,189.09668 45.549529,195.41685 50.630436,181.60198 C 59.283671,175.82032 59.848994,190.49985 66.898888,179.02855 C 72.938399,168.06 91.850306,165.57966 97.194417,170.22447 C 86.318557,163.31133 82.7498,150.72707 86.991079,141.0072 C 71.676589,144.65852 53.870464,145.73078 47.207192,128.21743 C 48.039097,114.67024 25.412276,121.31874 30.304576,105.03546 C 12.634368,99.740495 19.591367,84.043682 31.375062,77.366401 C 32.108225,67.342422 32.196159,58.145789 43.436562,67.659813 z"
       id="path3301" />
  </g>
</svg>
